0
SECTION
2
HEADER
9
$INSUNITS
70
4
9
$ACADVER
1
AC1014
9
$HANDSEED
5
FFFF
0
ENDSEC
0
SECTION
2
TABLES
0
TABLE
2
VPORT
5
8
100
AcDbSymbolTable
0
ENDTAB
0
TABLE
2
LTYPE
5
5
100
AcDbSymbolTable
0
LTYPE
5
14
100
AcDbSymbolTableRecord
100
AcDbLinetypeTableRecord
2
BYBLOCK
70
0
0
LTYPE
5
15
100
AcDbSymbolTableRecord
100
AcDbLinetypeTableRecord
2
BYLAYER
70
0
0
ENDTAB
0
TABLE
2
LAYER
5
2
100
AcDbSymbolTable
70
2
0
LAYER
5
50
100
AcDbSymbolTableRecord
100
AcDbLayerTableRecord
2
0
70
0
6
CONTINUOUS
0
ENDTAB
0
TABLE
2
STYLE
5
3
100
AcDbSymbolTable
70
1
0
STYLE
5
11
100
AcDbSymbolTableRecord
100
AcDbTextStyleTableRecord
2
STANDARD
70
0
0
ENDTAB
0
TABLE
2
VIEW
5
6
100
AcDbSymbolTable
70
0
0
ENDTAB
0
TABLE
2
UCS
5
7
100
AcDbSymbolTable
70
0
0
ENDTAB
0
TABLE
2
APPID
5
9
100
AcDbSymbolTable
70
2
0
APPID
5
12
100
AcDbSymbolTableRecord
100
AcDbRegAppTableRecord
2
ACAD
70
0
0
ENDTAB
0
TABLE
2
DIMSTYLE
5
A
100
AcDbSymbolTable
70
1
0
ENDTAB
0
TABLE
2
BLOCK_RECORD
5
1
100
AcDbSymbolTable
70
1
0
BLOCK_RECORD
5
1F
100
AcDbSymbolTableRecord
100
AcDbBlockTableRecord
2
*MODEL_SPACE
0
BLOCK_RECORD
5
1B
100
AcDbSymbolTableRecord
100
AcDbBlockTableRecord
2
*PAPER_SPACE
0
ENDTAB
0
ENDSEC
0
SECTION
2
BLOCKS
0
BLOCK
5
20
100
AcDbEntity
100
AcDbBlockBegin
2
*MODEL_SPACE
0
ENDBLK
5
21
100
AcDbEntity
100
AcDbBlockEnd
0
BLOCK
5
1C
100
AcDbEntity
100
AcDbBlockBegin
2
*PAPER_SPACE
0
ENDBLK
5
1D
100
AcDbEntity
100
AcDbBlockEnd
0
ENDSEC
0
SECTION
2
ENTITIES
0
CIRCLE
5
100
100
AcDbEntity
8
0
100
AcDbCircle
10
5
20
85.5
30
0
40
1.6000000000000003
210
0
220
-0
230
1
0
CIRCLE
5
101
100
AcDbEntity
8
0
100
AcDbCircle
10
195
20
85.499999999999986
30
0
40
1.6000000000000014
210
0
220
-0
230
1
0
CIRCLE
5
102
100
AcDbEntity
8
0
100
AcDbCircle
10
4.9999999999999911
20
10.500000000000007
30
0
40
1.6000000000000003
210
0
220
-0
230
1
0
CIRCLE
5
103
100
AcDbEntity
8
0
100
AcDbCircle
10
195
20
10.499999999999989
30
0
40
1.6000000000000014
210
0
220
-0
230
1
0
CIRCLE
5
104
100
AcDbEntity
8
0
100
AcDbCircle
10
47.820000000000007
20
18.999999999999993
30
0
40
15.750000000000002
210
0
220
-0
230
1
0
CIRCLE
5
105
100
AcDbEntity
8
0
100
AcDbCircle
10
162.5
20
15.49999999999998
30
0
40
6.4999999999999858
210
0
220
-0
230
1
0
LINE
5
106
100
AcDbEntity
8
0
100
AcDbLine
10
169.75000000000006
20
43.949999999999974
30
0
11
174.25
21
43.949999999999974
31
0
0
ARC
5
107
100
AcDbEntity
8
0
100
AcDbCircle
10
174.24999999999997
20
40.699999999999974
30
0
40
3.2500000000000018
210
-0
220
0
230
1
100
AcDbArc
50
-89.999999999999503
51
90.000000000000497
0
LINE
5
108
100
AcDbEntity
8
0
100
AcDbLine
10
174.25
20
37.449999999999974
30
0
11
169.75000000000006
21
37.449999999999974
31
0
0
ARC
5
109
100
AcDbEntity
8
0
100
AcDbCircle
10
169.75000000000009
20
40.699999999999974
30
0
40
3.2500000000000018
210
0
220
0
230
1
100
AcDbArc
50
90.000000000000497
51
269.99999999999949
0
CIRCLE
5
110
100
AcDbEntity
8
0
100
AcDbCircle
10
114.18000000000001
20
18.999999999999986
30
0
40
15.750000000000009
210
0
220
-0
230
1
0
CIRCLE
5
111
100
AcDbEntity
8
0
100
AcDbCircle
10
181.50000000000003
20
15.499999999999972
30
0
40
6.4999999999999858
210
0
220
-0
230
1
0
ARC
5
112
100
AcDbEntity
8
0
100
AcDbCircle
10
5
20
85.5
30
0
40
10.500000000000007
210
0
220
-0
230
1
100
AcDbArc
50
89.999999999999972
51
180
0
LINE
5
113
100
AcDbEntity
8
0
100
AcDbLine
10
-5.5000000000000018
20
85.5
30
0
11
-5.5000000000000089
21
10.500000000000007
31
0
0
ARC
5
114
100
AcDbEntity
8
0
100
AcDbCircle
10
4.9999999999999911
20
10.500000000000007
30
0
40
10.5
210
0
220
0
230
1
100
AcDbArc
50
180
51
270
0
LINE
5
115
100
AcDbEntity
8
0
100
AcDbLine
10
4.9999999999999929
20
-4.4408920985006766e-15
30
0
11
195
21
-1.7763568394002505e-14
31
0
0
ARC
5
116
100
AcDbEntity
8
0
100
AcDbCircle
10
195
20
10.499999999999989
30
0
40
10.500000000000007
210
-0
220
0
230
1
100
AcDbArc
50
270
51
360
0
LINE
5
117
100
AcDbEntity
8
0
100
AcDbLine
10
205.50000000000006
20
10.499999999999988
30
0
11
205.5
21
85.499999999999972
31
0
0
ARC
5
118
100
AcDbEntity
8
0
100
AcDbCircle
10
195
20
85.499999999999986
30
0
40
10.500000000000007
210
0
220
0
230
1
100
AcDbArc
50
0
51
90
0
LINE
5
119
100
AcDbEntity
8
0
100
AcDbLine
10
195
20
95.999999999999943
30
0
11
5.0000000000000036
21
96.000000000000014
31
0
0
LWPOLYLINE
5
120
100
AcDbEntity
8
0
100
AcDbPolyline
90
4
70
1
43
0.0
10
72.320000000000007
20
40.499999999999986
10
23.320000000000007
20
40.5
10
23.320000000000011
20
77.5
10
72.320000000000007
20
77.5
0
LWPOLYLINE
5
121
100
AcDbEntity
8
0
100
AcDbPolyline
90
4
70
1
43
0.0
10
138.68000000000001
20
40.499999999999986
10
89.680000000000021
20
40.5
10
89.680000000000021
20
77.499999999999986
10
138.68000000000001
20
77.499999999999986
0
LWPOLYLINE
5
122
100
AcDbEntity
8
0
100
AcDbPolyline
90
4
70
1
43
0.0
10
169.75
20
75.749999999999943
42
0.99999999999999989
10
169.74999999999994
20
69.249999999999986
10
174.25000000000006
20
69.249999999999972
42
0.99999999999999989
10
174.24999999999997
20
75.749999999999972
0
ENDSEC
0
SECTION
2
OBJECTS
0
DICTIONARY
5
C
100
AcDbDictionary
3
ACAD_GROUP
350
D
3
ACAD_MLINESTYLE
350
17
0
DICTIONARY
5
D
100
AcDbDictionary
0
DICTIONARY
5
1A
330
C
100
AcDbDictionary
0
DICTIONARY
5
17
100
AcDbDictionary
0
ENDSEC
0
EOF
